{"title":"Julias.Eyes.2010.DVDRip.XviD-LuCiFeR","uid":6287137,"size":1561814250,"categoryP":"video","categoryS":"movies","magnet":"?xt=urn:btih:e9d9164178c6f03da85c27b898c28bc764bf22b2&amp;dn=Julias.Eyes.2010.DVDRip.XviD-LuCiFeR&amp;tr=udp%3A%2F%2Ftracker.openbittorrent.com%3A80&amp;tr=udp%3A%2F%2Fopen.demonii.com%3A1337&amp;tr=udp%3A%2F%2Ftracker.coppersurfer.tk%3A6969&amp;tr=udp%3A%2F%2Fexodus.desync.com%3A6969","seeders":1,"leechers":0,"uploader":"HORRORTEAM-BG","files":-1,"time":1301654064,"description":"Julias.Eyes.2010.DVDRip.XviD-LuCiFeR.avi\nFormat                           : AVI\nFormat/Info                      : Audio Video Interleave\nFile size                        : 1.45 GiB\nDuration                         : 1h 52mn\nOverall bit rate                 : 1 851 Kbps\nWriting application              : Nandub v1.0rc2\nWriting library                  : Nandub build 1853/release\n\nVideo\nID                               : 0\nFormat                           : MPEG-4 Visual\nFormat profile                   : Advanced Simple@L5\nFormat settings, BVOP            : 2\nFormat settings, QPel            : No\nFormat settings, GMC             : No warppoints\nFormat settings, Matrix          : Default (H.263)\nCodec ID                         : XVID\nCodec ID/Hint                    : XviD\nDuration                         : 1h 52mn\nBit rate                         : 1 711 Kbps\nWidth                            : 720 pixels\nHeight                           : 304 pixels\nDisplay aspect ratio             : 2.35:1\nFrame rate                       : 25.000 fps\nColor space                      : YUV\nChroma subsampling               : 4:2:0\nBit depth                        : 8 bits\nScan type                        : Progressive\nCompression mode                 : Lossy\nBits/(Pixel*Frame)               : 0.313\nStream size                      : 1.34 GiB (92%)\nWriting library                  : XviD 1.2.1 (UTC 2008-12-04)\n\nAudio\nID                               : 1\nFormat                           : MPEG Audio\nFormat version                   : Version 1\nFormat profile                   : Layer 3\nMode                             : Joint stereo\nCodec ID                         : 55\nCodec ID/Hint                    : MP3\nDuration                         : 1h 52mn\nBit rate mode                    : Constant\nBit rate                         : 128 Kbps\nChannel(s)                       : 2 channels\nSampling rate                    : 44.1 KHz\nCompression mode                 : Lossy\nDelay relative to video          : 1ms\nStream size                      : 103 MiB (7%)\nAlignment                        : Aligned on interleaves\nInterleave, duration             : 26 ms (0.65 video frame)\nInterleave, preload duration     : 498 ms\nWriting library                  : LAME3.98.2\n\nThe story of a woman who is slowly losing her sight whilst trying to investigate the mysterious death of her twin sister. ","torrent":{"xt":"urn:btih:e9d9164178c6f03da85c27b898c28bc764bf22b2","amp;dn":"Julias.Eyes.2010.DVDRip.XviD-LuCiFeR","amp;tr":["udp%3A%2F%2Ftracker.openbittorrent.com%3A80","udp%3A%2F%2Fopen.demonii.com%3A1337","udp%3A%2F%2Ftracker.coppersurfer.tk%3A6969","udp%3A%2F%2Fexodus.desync.com%3A6969"],"infoHash":"e9d9164178c6f03da85c27b898c28bc764bf22b2","infoHashBuffer":{"type":"Buffer","data":[233,217,22,65,120,198,240,61,168,92,39,184,152,194,139,199,100,191,34,178]},"announce":[],"urlList":[]}}